<svg xmlns="http://www.w3.org/2000/svg" viewBox="0 0 268.54 34.37"><defs><style>.cls-1{fill:#333;}</style></defs><title>Asset 8</title><g id="Layer_2" data-name="Layer 2"><g id="index-page"><path class="cls-1" d="M30.17,33.92H28.25L20.92,8.16Q20,5,19.55,2.95q-.37,2-1,4.57t-7.37,26.4h-2L0,.53H2.44L8.29,22l.64,2.41q.3,1.11.54,2.08T9.9,28.4q.19.9.35,1.82.55-3.11,2.33-9.43L18.29.53h2.58l6.69,23.25q1.16,4,1.67,6.49.3-1.64.77-3.49T37,.53H39.4Z"/><path class="cls-1" d="M183.39,33.92H176.7L160.28,7.31h-.18l.11,1.48q.32,4.25.32,7.77V33.92h-5V.53h6.62L178.58,27h.14q0-.53-.18-3.83T178.39,18V.53h5Z"/><path class="cls-1" d="M221.85,17.17q0,8.15-4.08,12.68t-11.54,4.52q-7.56,0-11.61-4.49t-4.05-12.75q0-8.27,4.08-12.7T206.28,0q7.45,0,11.51,4.5T221.85,17.17Zm-25.49,0q0,6.17,2.49,9.35t7.38,3.19q4.86,0,7.34-3.15t2.48-9.39q0-6.14-2.46-9.32t-7.32-3.17q-4.91,0-7.41,3.17T196.37,17.17Z"/><path class="cls-1" d="M259.84,33.92H253.9L248.23,14q-.37-1.3-.91-3.76t-.66-3.41q-.23,1.46-.74,3.79t-.86,3.47l-5.53,19.82h-5.94L229.28,17.2,224.89.53h5.57L235.24,20q1.12,4.68,1.6,8.27.25-1.94.75-4.34T238.5,20L243.94.53h5.41l5.57,19.6a73.28,73.28,0,0,1,1.69,8.13,59.57,59.57,0,0,1,1.64-8.31L263,.53h5.53Z"/><polygon class="cls-1" points="54.77 0.41 40.59 33.92 68.62 33.92 54.77 0.41"/><path class="cls-1" d="M82,33.92H79.7V2.72H68.85V.53h24V2.72H82Z"/><path class="cls-1" d="M112.1,2.15q-6.28,0-9.89,4t-3.61,11q0,7.15,3.4,11.1t9.73,4a26.35,26.35,0,0,0,7.72-1.07v2.06a25.19,25.19,0,0,1-8.27,1.16q-7,0-11.08-4.54t-4-12.7a19.91,19.91,0,0,1,1.93-9,14,14,0,0,1,5.55-6A16.39,16.39,0,0,1,112,0a20.21,20.21,0,0,1,8.75,1.83L119.78,4A17,17,0,0,0,112.1,2.15Z"/><path class="cls-1" d="M151.09,33.92h-2.35V17.49h-19.5V33.92H126.9V.53h2.33V15.35h19.5V.53h2.35Z"/></g></g></svg>